<svg version="1.2" xmlns="http://www.w3.org/2000/svg" viewBox="0 0 512 256" width="512" height="256"><style>.a{opacity:.7;fill:#fff}</style><path class="a" d="m44.5 153.5q-7.7 0-13.8-2.6-6.1-2.6-10.1-7.4-4-4.8-5.2-11.4l9.2-1.5q1.8 6.8 7.3 10.7 5.5 3.8 13 3.8 4.9 0 8.8-1.5 3.9-1.6 6.2-4.4 2.3-2.9 2.3-6.8 0-2.4-0.8-4.1-0.8-1.8-2.3-3-1.4-1.2-3.2-2-1.8-0.9-3.7-1.5l-18.4-5.4q-3-0.9-5.8-2.2-2.8-1.4-5-3.5-2.2-2.1-3.5-5-1.3-2.9-1.3-6.9 0-6.5 3.3-11 3.4-4.5 9.1-6.9 5.7-2.4 12.8-2.4 7.3 0.1 13 2.6 5.7 2.5 9.5 7.2 3.8 4.8 5.1 11.3l-9.5 1.7q-0.7-4.5-3.3-7.6-2.6-3.2-6.4-4.9-3.9-1.8-8.5-1.8-4.4 0-7.9 1.4-3.6 1.4-5.7 4-2.1 2.6-2.1 5.9 0 3.4 1.9 5.4 1.9 2 4.7 3.2 2.8 1.1 5.4 1.9l13.7 4q2.4 0.6 5.4 1.7 3.1 1.2 6 3.3 2.9 2 4.8 5.5 1.9 3.4 1.9 8.6 0 5.2-2.1 9.3-2 4-5.7 6.7-3.7 2.8-8.6 4.2-4.9 1.4-10.5 1.4zm67.6-9.2v7.7q-4.8 0.9-9.5 0.8-4.7-0.2-8.3-1.9-3.7-1.7-5.6-5.4-1.6-3.2-1.7-6.4-0.1-3.3-0.1-7.5v-48.6h8.9v48.2q0 3.3 0 5.6 0.1 2.4 1.1 4.1 1.8 3.2 5.7 3.8 3.9 0.5 9.5-0.4zm0-39h-36.2v-7.3h36.2zm26.3 48.2q-6 0-10.1-2.2-4.1-2.3-6.2-5.9-2-3.7-2-8 0-4.3 1.6-7.4 1.6-3.1 4.6-5.2 2.9-2.1 7-3.3 3.9-1 8.6-1.8 4.8-0.8 9.7-1.4 4.9-0.7 9.2-1.3l-3.2 1.9q0.1-7.3-2.9-10.7-3-3.5-10.4-3.5-4.9 0-8.6 2.3-3.7 2.2-5.2 7.2l-8.4-2.6q1.9-7.1 7.5-11.1 5.6-4 14.8-4 7.3 0 12.6 2.6 5.3 2.6 7.6 7.9 1.1 2.5 1.4 5.5 0.3 2.9 0.3 6v33.5h-7.9v-13l1.9 1.2q-3.1 6.6-8.6 9.9-5.4 3.4-13.3 3.4zm1.4-7.5q4.8 0 8.3-1.7 3.5-1.8 5.7-4.5 2.1-2.9 2.8-6.3 0.7-2.5 0.8-5.5 0.1-3.1 0.1-4.8l3.1 1.4q-4.4 0.6-8.6 1.1-4.2 0.6-7.9 1.3-3.8 0.5-6.8 1.4-2.2 0.7-4.1 1.8-1.9 1.1-3.1 2.8-1.2 1.8-1.2 4.3 0 2.2 1.1 4.2 1.2 2 3.5 3.3 2.4 1.2 6.3 1.2zm113 6h-8.9v-34.6q0-6-3.2-9.4-3.2-3.5-8.4-3.5-3 0-5.7 1.4-2.7 1.4-4.4 4.3-1.7 2.9-1.7 7.4l-4.7-1.8q-0.1-5.8 2.4-10.1 2.5-4.3 6.8-6.7 4.3-2.5 9.7-2.5 8.4 0 13.3 5.2 4.8 5.1 4.8 13.8zm-64.5 0h-9v-54h8v14.4h1zm32.2 0h-8.8v-34.2q0-6.2-3.2-9.7-3.2-3.6-8.5-3.6-5.2 0-8.5 3.6-3.2 3.6-3.2 9.6l-4.7-2.8q0-5.3 2.5-9.4 2.5-4.2 6.8-6.5 4.3-2.4 9.7-2.4 5.5 0 9.5 2.3 4.1 2.3 6.3 6.6 2.2 4.2 2.2 10.2zm92.8 0h-8.9v-63.6h-24.6v-8.4h58v8.4h-24.5zm46.9 1.4q-9.6 0-15.8-4.2-6.2-4.2-7.6-11.8l9.1-1.5q1.1 4.4 5.1 7 3.9 2.6 9.8 2.6 5.5 0 8.7-2.3 3.1-2.3 3.1-6.3 0-2.3-1-3.7-1.1-1.4-4.4-2.6-3.2-1.3-9.8-3.1-7.2-1.9-11.3-3.9-4.1-2.1-5.8-4.8-1.8-2.7-1.8-6.5 0-4.8 2.6-8.3 2.6-3.6 7.3-5.6 4.7-1.9 10.9-1.9 6.1 0 11 1.9 4.8 2 7.8 5.6 3 3.5 3.5 8.3l-9.1 1.6q-0.6-4.3-4.2-6.8-3.5-2.5-9-2.7-5.3-0.2-8.6 1.9-3.2 2-3.2 5.5 0 2 1.2 3.4 1.2 1.4 4.5 2.6 3.4 1.3 9.7 2.9 7.2 1.8 11.3 3.9 4.1 2.1 5.9 5 1.7 2.9 1.7 7.1 0 7.8-5.7 12.3-5.8 4.4-15.9 4.4zm48 0.1q-6 0-10.1-2.2-4.1-2.2-6.2-5.9-2-3.7-2-8 0-4.3 1.6-7.3 1.6-3.2 4.6-5.3 2.9-2.1 7-3.3 3.9-1 8.6-1.8 4.8-0.8 9.7-1.4 4.9-0.7 9.2-1.3l-3.2 1.9q0.1-7.2-2.9-10.7-3-3.4-10.4-3.4-4.9 0-8.6 2.2-3.7 2.2-5.2 7.2l-8.4-2.5q1.9-7.1 7.5-11.2 5.6-4 14.8-4 7.3 0 12.6 2.6 5.3 2.6 7.6 7.9 1.1 2.5 1.4 5.5 0.3 2.9 0.3 6.1v33.4h-7.9v-12.9l1.9 1.1q-3.1 6.6-8.6 9.9-5.4 3.4-13.3 3.4zm1.4-7.4q4.8 0 8.3-1.8 3.5-1.7 5.7-4.5 2.1-2.9 2.8-6.2 0.7-2.5 0.8-5.5 0.1-3.2 0.1-4.8l3.1 1.3q-4.4 0.6-8.6 1.2-4.2 0.5-7.9 1.2-3.8 0.6-6.8 1.4-2.2 0.7-4.1 1.8-1.9 1.1-3.1 2.9-1.2 1.7-1.2 4.2 0 2.3 1.1 4.3 1.2 2 3.5 3.2 2.4 1.3 6.3 1.3zm61.4 31.4q-4.3 0-8.3-1.3-4.1-1.3-7.5-3.9-3.3-2.7-5.6-6.7l8.2-4.3q2 4 5.6 5.8 3.7 1.8 7.6 1.8 5.2 0 8.6-1.8 3.4-2 5-5.7 1.6-3.7 1.6-9.2v-14.7h1v-39.5h7.9v54.3q0 2.3-0.1 4.3-0.1 2-0.5 4-1.1 5.8-4.2 9.5-3.1 3.7-8 5.6-4.9 1.8-11.3 1.8zm-0.7-24q-7.5 0-12.9-3.8-5.4-3.8-8.4-10.2-2.9-6.4-2.9-14.6 0-8.1 2.9-14.5 3-6.5 8.4-10.2 5.4-3.7 12.9-3.7 7.6 0 12.8 3.7 5.2 3.7 7.9 10.1 2.7 6.5 2.7 14.6 0 8.1-2.7 14.6-2.7 6.4-7.9 10.2-5.2 3.8-12.8 3.8zm1.1-8.2q5.5 0 9-2.6 3.5-2.6 5.1-7.2 1.7-4.7 1.7-10.6 0-6-1.7-10.5-1.6-4.6-5.1-7.2-3.4-2.6-8.7-2.6-5.5 0-9.1 2.7-3.6 2.7-5.3 7.3-1.7 4.6-1.7 10.3 0 5.8 1.7 10.4 1.8 4.6 5.3 7.3 3.5 2.7 8.8 2.7z"/></svg>