<svg version="1.2" xmlns="http://www.w3.org/2000/svg" viewBox="0 0 2160 1080" width="2160" height="1080"><style></style><path  d="m172.8 635.6l14.7-39.2q43.5 23.6 72.6 23.6 29.1 0 44.3-11.4 15.2-11.4 15.2-31.2 0-22-19.4-35-11-7.2-18.6-10.6-7.2-3.4-22.8-9.7-15.2-6.7-23.6-10.5-8.4-4.3-20.3-11.9-11.4-8-17.7-16-16.4-19.8-16.4-48.1 0-39.2 27-63.7 27.4-24.4 68.7-24.4 25.3 0 49 8.4 23.6 8.4 36.3 16.9l-16.9 36.7q-41.4-21.5-64.6-21.5-23.2 0-37.1 11.3-13.9 11-13.9 29.2 0 20.2 18.1 32.4 15.2 10.2 35 18.6 19.9 8.4 27.9 12.2 8.4 3.8 21.1 12.3 12.6 8.4 19.4 16.8 16.9 22 16.9 51.5 0 42.6-30.4 65.4-30 22.4-78.9 22.4-48.9 0-85.7-24.5zm308-157.4v176.8h-45.5v-318.1l45.5-5.9v113.5q33.3-19.8 65.4-19.8 76.8 0 76.8 82.6v147.7h-45.6v-139.2q0-55.7-44.3-55.7-16.8 0-32 6.3-15.2 6.4-20.3 11.8zm388.6-34.6v157.8q0 14.8 3.3 19.8 3.4 4.7 16.5 4.7l1.7 26.6q-10.6 3.8-22.4 3.8-32.9 0-39.2-30-22.4 33.8-66.2 33.8-43.5 0-65-32.5-21.1-32.5-21.1-83.6 0-51.4 29.1-85.2 29.1-34.1 78-34.1 19.9 0 46 6.3 26.6 5.9 39.3 12.6zm-144.3 103.8q0 40.9 12.2 59.1 12.7 18.1 36.3 18.1 23.6 0 36.7-16.4 13.5-16.9 13.5-41.4v-101.2q-16.5-5.5-37.5-5.5-32.1 0-46.9 23.2-14.3 23.2-14.3 64.1zm355.6-210.5l45.6-5.9v271.3q0 15.2 3.4 19.4 3.8 4.2 16.4 4.2l1.7 26.6q-10.5 3.8-22.4 3.8-32.9 0-39.2-30-22.4 33.8-66.6 33.8-38 0-62.1-28.7-23.6-29.1-23.6-85.2 0-56.2 27.4-88.6 27.9-32.9 83.1-32.9 16.9 0 36.3 4.6zm-86 270q12.6 17.7 36.2 17.7 23.7 0 36.7-16.9 13.1-16.8 13.1-40v-102.1q-14.3-5.5-37.5-5.5-34.2 0-47.7 21.9-13.5 22-13.5 64.6 0 42.2 12.7 60.3zm306.7-182.3q41.3 0 68.3 29.2 27 28.6 27 84.8 0 56.1-27.8 89-27.5 32.5-82.7 32.5-41.4 0-68.4-29.2-27-29.5-27-85.6 0-56.1 27.5-88.2 27.8-32.5 83.1-32.5zm-62.5 121.1q0 42.2 14 60.8 14.3 18.1 42.6 18.1 28.2 0 40.5-21.9 12.6-22 12.6-64.1 0-42.7-14.3-60.4-13.9-18.1-38.8-18.1-31.7 0-44.3 21.5-12.3 21.5-12.3 64.1zm228.7 127.4v-205h-40.1v-24.9l40.1-5.5v-32.9q0-34.6 17.7-54 18.1-19.8 55.7-19.8 21.1 0 29.9 2.5 9.3 2.6 14 3.8l4.6 1.3-6.7 30.8q-23.7-3-36.3-3-12.7 0-23.2 9.7-10.2 9.3-10.2 29.6v32h50.7l-5.1 30.4h-45.6v205.9q0 34.6-13.9 54.4-13.9 19.4-43 19.4-16.5 0-29.5-4.6l5.4-32.1q5.1 1.3 13.1 1.3 22.4 0 22.4-39.3zm298.7-66.2l15.6 28.7q-7.2 6.7-30.4 15.6-23.2 8.9-49.8 8.9-47.2 0-76.3-28.7-28.7-28.7-28.7-86.1 0-31.6 10.1-55.7 10.1-24.5 26.2-38 32.9-27 68.7-27 36.3 0 57.4 18.6 21.5 18.2 21.5 44.7 0 35-33.3 57.4-33.3 21.9-106.7 21.9 0 19.4 16 38.4 16.4 19 48.1 19 32 0 61.6-17.7zm-26.6-115.2q0-12.6-9.7-21.9-9.3-9.7-26.6-9.7-27.8 0-46 21.1-17.7 20.7-18.1 54.4 100.4 0 100.4-43.9zm102.5 163.3v-153.6q0-37.9-7.6-68.3l35.5-4.7 10.5 27.5q26.6-31.3 59.9-31.3 22.4 0 34.6 10.6 12.7 10.5 12.7 29.9 0 19.5-6.4 34.2l-36.3-4.6q0-19-3.7-26.6-3.4-8-14.8-8-11 0-22 8.8-10.5 8.9-16.8 19.9v166.2z"/></svg>