<svg version="1.2" xmlns="http://www.w3.org/2000/svg" viewBox="0 0 512 256" width="512" height="256"><style>.a{opacity:.7}</style><path class="a" d="m72.5 165.5q-7.7 0-13.8-2.6-6.1-2.6-10.1-7.4-4-4.8-5.2-11.4l9.2-1.5q1.8 6.8 7.3 10.7 5.5 3.8 13 3.8 4.9 0 8.8-1.5 3.9-1.6 6.2-4.4 2.3-2.9 2.3-6.8 0-2.4-0.8-4.1-0.8-1.7-2.3-3-1.4-1.2-3.2-2-1.8-0.9-3.7-1.5l-18.4-5.4q-3-0.9-5.8-2.2-2.8-1.4-5-3.5-2.2-2.1-3.5-5-1.3-2.9-1.3-6.9 0-6.5 3.3-11 3.4-4.5 9.1-6.9 5.7-2.4 12.8-2.4 7.3 0.1 13 2.6 5.7 2.5 9.5 7.2 3.8 4.8 5.1 11.3l-9.5 1.7q-0.7-4.5-3.3-7.6-2.6-3.2-6.4-4.9-3.9-1.8-8.5-1.8-4.4 0-7.9 1.4-3.6 1.4-5.7 4-2.1 2.6-2.1 5.9 0 3.4 1.9 5.4 1.9 2 4.7 3.2 2.8 1.1 5.4 1.9l13.7 4q2.4 0.6 5.4 1.7 3.1 1.2 6 3.3 2.9 2 4.8 5.5 1.9 3.4 1.9 8.6 0 5.2-2.1 9.3-2 4-5.7 6.7-3.7 2.8-8.6 4.2-4.9 1.4-10.5 1.4zm84.9-1.5h-9v-27.1q0-3.8-0.7-7.3-0.7-3.6-2.4-6.4-1.6-2.9-4.5-4.5-2.8-1.7-7.1-1.7-3.3 0-6.1 1.2-2.7 1.1-4.6 3.4-2 2.3-3.1 5.8-1 3.4-1 8.2l-5.9-1.8q0-7.9 2.8-13.5 2.9-5.6 8-8.6 5.1-3.1 12.1-3.1 5.2 0 8.9 1.7 3.7 1.6 6.2 4.4 2.4 2.6 3.8 6.1 1.4 3.3 2 6.8 0.6 3.5 0.6 6.6zm-38.5 0h-9v-72h8v39.7h1zm66.8 1.5q-6 0-10.1-2.2-4.1-2.2-6.2-5.9-2-3.6-2-8 0-4.2 1.6-7.3 1.6-3.2 4.6-5.2 2.9-2.1 7-3.3 3.9-1.1 8.6-1.8 4.8-0.9 9.7-1.5 4.9-0.6 9.2-1.2l-3.2 1.8q0.1-7.2-2.9-10.6-3-3.5-10.4-3.5-4.9 0-8.6 2.3-3.7 2.2-5.2 7.2l-8.4-2.6q1.9-7.1 7.5-11.1 5.6-4.1 14.8-4.1 7.3 0 12.6 2.7 5.3 2.6 7.6 7.9 1.1 2.5 1.4 5.4 0.3 2.9 0.3 6.1v33.4h-7.9v-12.9l1.9 1.2q-3.1 6.5-8.6 9.9-5.4 3.3-13.3 3.3zm1.4-7.4q4.8 0 8.3-1.7 3.5-1.8 5.7-4.6 2.1-2.9 2.8-6.2 0.7-2.5 0.8-5.5 0.1-3.2 0.1-4.8l3.1 1.4q-4.4 0.6-8.6 1.1-4.2 0.6-7.9 1.2-3.8 0.6-6.8 1.4-2.2 0.8-4.1 1.9-1.9 1.1-3.1 2.8-1.2 1.7-1.2 4.3 0 2.2 1.1 4.2 1.2 2 3.5 3.2 2.4 1.3 6.3 1.3zm60.7 7.4q-7.5 0-12.9-3.7-5.4-3.9-8.4-10.3-2.9-6.4-2.9-14.6 0-8 2.9-14.5 3-6.5 8.4-10.1 5.4-3.8 12.9-3.8 7.6 0 12.8 3.7 5.2 3.7 7.9 10.2 2.7 6.4 2.7 14.5 0 8.1-2.7 14.6-2.7 6.4-7.9 10.3-5.2 3.7-12.8 3.7zm1.1-8.1q5.5 0 9-2.6 3.5-2.7 5.1-7.3 1.7-4.6 1.7-10.6 0-6-1.7-10.5-1.6-4.6-5.1-7.1-3.4-2.6-8.7-2.6-5.5 0-9.1 2.6-3.6 2.8-5.3 7.4-1.7 4.6-1.7 10.2 0 5.8 1.7 10.4 1.8 4.6 5.3 7.4 3.5 2.6 8.8 2.6zm23.8 6.7h-8v-39.7h-1v-32.3h9zm37 1.5q-8.1 0-13.9-3.7-5.8-3.6-9-10-3.1-6.5-3.1-14.9 0-8.5 3.2-14.8 3.2-6.4 9-10 5.9-3.6 13.8-3.6 8.1 0 13.9 3.7 5.9 3.6 9 10 3.1 6.4 3.1 14.7 0 8.5-3.1 15-3.2 6.4-9 10-5.9 3.6-13.9 3.6zm0-8.4q8.4 0 12.5-5.7 4.1-5.5 4.1-14.5 0-9.1-4.2-14.5-4.1-5.5-12.4-5.5-5.7 0-9.3 2.6-3.7 2.6-5.5 7.1-1.8 4.5-1.8 10.3 0 9.2 4.2 14.7 4.2 5.5 12.4 5.5zm51.1 6.9h-8.9v-56.9q0-2.2 0.2-4.3 0.2-2.2 0.9-4.2 0.7-2.1 2.3-3.9 1.8-2.1 4-2.9 2.2-0.9 4.5-1.1 2.3-0.2 4.3-0.2h6.9v7.4h-6.4q-3.9 0-5.9 1.9-1.9 2-1.9 5.9zm14.2-46.7h-32.3v-7.3h32.3zm29.4 48.1q-8 0-13.9-3.5-5.9-3.5-9.2-9.8-3.3-6.4-3.3-14.8 0-8.9 3.2-15.3 3.3-6.5 9.1-10 5.8-3.6 13.7-3.6 8.1 0 13.8 3.8 5.8 3.7 8.6 10.7 2.9 6.9 2.5 16.5h-9v-3.2q-0.1-9.9-4-14.8-3.9-5-11.6-5-8.3 0-12.6 5.3-4.3 5.3-4.3 15.2 0 9.6 4.3 14.8 4.3 5.3 12.3 5.3 5.3 0 9.3-2.5 3.9-2.4 6.2-7l8.5 2.9q-3.1 7.2-9.5 11.1-6.3 3.9-14.1 3.9zm19.9-26h-39.9v-7.1h39.9zm24.7 24.5h-9v-54h8v13l-1.3-1.7q0.9-2.5 2.4-4.6 1.6-2.1 3.5-3.4 2.1-1.7 4.7-2.6 2.7-0.9 5.4-1.1 2.8-0.2 5.2 0.4v8.3q-2.8-0.7-6.2-0.4-3.3 0.4-6.2 2.5-2.6 1.8-4 4.5-1.4 2.6-2 5.7-0.5 3.1-0.5 6.3z"/></svg>